<?xml version="1.0" encoding="UTF-8" standalone="no"?>
<svg
   xmlns:svg="http://www.w3.org/2000/svg"
   xmlns="http://www.w3.org/2000/svg"
   version="1.1"
   width="439.71841"
   height="514.03998"
   id="svg4872">
  <defs
     id="defs4874" />
  <g
     transform="translate(-205.85509,-246.77076)"
     id="layer1">
    <path
       d="m 425.71886,759.77803 0,-512.00727 -218.86377,0 0,512.00727 218.86377,0 z"
       id="path1616"
       style="fill:#b54230;fill-opacity:1;fill-rule:nonzero;stroke:none" />
    <path
       d="m 644.57349,759.77803 0,-512.00727 -218.86377,0 0,512.00727 218.86377,0 z"
       id="path1632"
       style="fill:#f47520;fill-opacity:1;fill-rule:nonzero;stroke:none" />
    <path
       d="m 470.11729,247.78318 c -0.14613,0.80419 -0.30072,1.65217 -0.35554,2.66657 0,0.81335 0.9084,2.91073 0.84441,3.73321 0.26503,0.31071 4.9e-4,1.37186 -0.66664,1.91105 -0.8042,-0.0367 -0.80785,1.86322 -0.84442,2.31104 -0.0914,0.71281 0.96283,0.95935 0.53332,1.95549 0.21931,0.86818 0.39875,1.91661 0.44443,4.31097 -1.48962,2.3852 -1.94261,4.62387 -2.08882,7.15532 2.53141,3.1163 -3.74765,4.47766 -0.6222,7.15532 -1.78206,2.08364 1.05808,5.48119 -0.57776,7.8664 -3.87483,5.20908 2.71018,10.73308 -1.15552,16.08836 -0.74936,0.1463 -1.90769,-0.41961 -2.35548,0.6222 0.74939,2.53143 -2.82387,4.13839 0,6.22202 0.44779,0.8956 -0.0186,1.33943 -0.3111,2.08882 2.82387,3.56412 -0.46405,7.88968 0.57776,11.91072 -1.34339,1.4896 1.36244,2.09401 0.6222,4.17764 -0.4478,0.29246 -0.60596,0.88886 -1.19996,0.88886 1.78204,2.67766 -2.239,4.76058 0,6.84422 0.14613,0.594 0.0162,1.16504 -0.57776,1.46662 0.14613,1.78205 -0.19307,5.05976 -0.9333,5.95536 0.30157,3.12544 -0.14179,6.67779 -1.77772,9.51079 1.48962,0.43866 0.59403,2.08208 0,2.97768 -1.34339,-0.44778 -1.02833,-2.09122 -1.77772,-2.97768 -1.18803,1.33426 1.19477,3.43742 -0.88886,4.17764 0.14613,1.79119 2.2188,-0.0128 2.66658,1.77772 -0.15537,5.64775 -0.41131,11.4733 -3.24434,16.08836 1.05098,1.33426 -1.19043,1.44361 -0.88886,2.93324 2.37609,1.04181 0.12046,3.28444 0.26666,5.0665 -0.88645,6.99114 0.90667,15.63467 -2.66658,20.84376 -0.14612,1.18802 0.87259,2.07255 1.46662,2.66657 0.44779,1.93742 0.4454,6.3921 -0.88886,8.62194 l 1.19996,0.3111 c 0.4935,1.36168 0.28542,3.34226 -0.39998,4.31097 0.39296,-0.31073 0.812,-0.45313 1.02218,-0.13326 1.78206,26.02715 1.78206,54.28132 0,80.30847 l -2.71102,3.86654 c -4.90751,6.84493 -0.11221,16.67493 -4.13319,23.82143 1.04181,4.9075 1.6315,10.11085 1.77772,15.46616 1.34338,5.8031 -3.2912,9.3587 -4.17764,14.2662 4.31347,6.99114 0.87692,16.0714 -0.31111,23.51033 1.48962,5.94932 -2.35825,10.26622 -3.55543,15.46616 -0.29245,17.70174 2.23588,34.50105 5.95536,50.57611 4.9075,5.79396 7.73478,14.71246 15.46615,17.24388 1.3434,1.18804 4.753,1.03314 3.86654,3.55543 1.33426,-0.29242 2.24697,0.76131 3.28878,1.19996 0,-3.41788 4.01516,-1.30932 4.7554,-4.13319 l 0.26666,0.26666 c 1.78204,0.59402 0.58969,-1.01884 1.77772,-1.46662 5.06287,-0.59403 0.19825,5.9161 3.02212,7.99973 1.33426,-2.82387 3.09379,-5.04589 5.02206,-7.42197 5.94933,-11.01219 6.40678,-24.23687 11.02186,-35.68772 0.88645,-5.35531 -1.04097,-12.03912 3.86653,-15.46615 1.18803,-7.43893 6.7151,-12.93558 10.133,-19.3327 -0.15537,-4.31347 4.763,-7.47401 7.73308,-10.4441 2.22986,-1.34339 1.77616,-4.7554 4.7554,-4.7554 5.5015,-5.50153 11.87231,-8.48608 17.82164,-12.79958 4.45971,-2.67765 9.07336,-5.7671 13.68843,-6.79977 l -0.88886,0.84441 c 6.54335,-1.92827 10.11086,5.68437 15.46616,7.46643 -2.53141,10.2628 -6.37931,21.39588 -3.55544,32.39893 -1.04181,14.58541 -6.52794,27.84713 -4.4443,43.46523 1.48961,1.78206 3.23481,3.42392 2.93324,5.95536 4.31347,6.69869 3.60748,15.59542 6.57756,22.88813 2.3852,9.66879 13.95588,11.16304 17.82164,19.6438 l 0.88886,-1.46662 c 1.48958,1.63585 1.93586,3.54196 2.97775,5.33316 0.4477,1.04181 2.39025,0.14193 2.08875,1.77772 3.27171,-5.06287 6.54342,-10.12711 10.71082,-14.8884 2.08363,-2.37608 4.46564,-3.39814 5.95522,-6.22202 1.48973,-1.93741 3.42403,-4.3306 5.9555,-3.28878 -1.04188,-4.46884 1.62043,-8.31601 4.4443,-10.39965 l -2.35555,-2.39992 c 0.74024,-2.67766 1.6109,-5.47504 4.13327,-7.11088 -0.74038,-2.22984 -0.85643,-4.64015 -2.04452,-6.57756 -0.74934,-8.77319 -4.18276,-16.47754 -6.26639,-24.66586 1.18809,-2.82387 -2.35028,-5.21117 -0.26666,-8.04417 -1.93743,-4.01193 -1.04032,-9.0452 -2.9776,-13.06624 0.4477,-4.01193 -3.42986,-7.60397 -1.20004,-11.02186 -0.30164,-2.53144 -2.52464,-5.05542 -0.88886,-7.73308 -4.9075,-9.66878 -9.40072,-19.66021 -13.42177,-29.77679 -3.12538,-9.22099 -9.18868,-17.07636 -11.86621,-26.44358 -6.09559,-4.76128 -6.43065,-12.80996 -13.42185,-16.97721 -3.56411,-1.33428 -2.50255,4.61591 -6.22202,3.86653 -0.88645,-1.78205 1.46941,-3.69731 2.66658,-5.33315 -8.92854,-0.4478 -17.99774,0.43672 -26.17691,2.66658 -3.42703,3.27165 -8.3494,3.71792 -13.11068,2.97768 -10.40903,-0.44779 -17.0954,8.76816 -27.06578,8.62193 2.22985,-9.815 1.81542,-20.66951 2.71103,-30.93231 0.74024,-0.88646 1.62475,-1.47615 2.66657,-1.77772 -0.8956,-2.67766 2.99115,-4.32904 1.19996,-6.26646 0.89561,-8.9194 -0.1767,-18.59456 -1.51106,-27.37687 0.43867,-0.29243 0.75216,-0.88886 1.19996,-0.88886 l -2.08882,-1.19996 c 0.14613,-1.63585 2.55528,-1.15793 2.39992,-2.04438 l -0.3111,-0.3111 c -2.53143,-13.08668 -0.28292,-27.25466 0.3111,-40.48756 l 1.77772,-2.04437 -0.6222,-0.62221 c 0.15537,-0.30158 0.76842,-0.44107 0.6222,-0.88886 l -0.88886,0 c -0.74024,0 -0.6222,-0.75214 -0.6222,-1.19996 -0.48436,-1.91914 0.31928,-3.29994 1.64439,-3.86653 -0.0914,0.009 -0.0786,0 -0.13326,0 -0.0914,-0.19191 -0.0967,-0.38586 -0.13325,-0.57776 -1.55359,-6.29661 -0.3054,-14.06281 0.13325,-20.84376 l 1.77772,-1.15552 c 0.74025,-1.63584 -0.15564,-3.11958 -0.3111,-4.7554 -1.78211,-18.59741 -0.30443,-40.48273 -1.20003,-59.82032 l 0.9333,-0.88886 c 1.04182,-0.8956 -0.63173,-1.50153 -0.9333,-1.19996 -0.44778,-1.34339 0.92378,-1.78965 0.6222,-2.97768 l -0.3111,0 c -0.59401,-0.29244 -0.57776,-0.86346 -0.57776,-1.46662 0.14613,-0.88645 1.18369,-0.75217 1.77772,-1.19996 0,-4.3135 -1.19996,-8.61326 -1.19996,-12.17737 l -0.88886,0.26665 c -2.08364,-2.53144 2.69909,-3.42394 1.51106,-5.95535 l -1.51106,0 c -1.78205,-0.89561 -0.13951,-2.21206 -0.88886,-3.55544 0.8956,-1.48049 2.81521,-0.73591 3.55544,-1.77772 -0.44778,-0.14632 -0.7077,0.3111 -1.15552,0.3111 -1.7912,-1.04182 -0.0377,-2.56758 -0.9333,-3.91098 0,-0.88646 -1.01883,-0.56825 -1.46662,-0.26666 -3.4179,-1.63584 1.48288,-2.5418 0.88886,-4.17764 l -1.19996,-0.26666 c 0.29246,-1.19717 0.58969,-2.40232 1.77772,-3.28878 -0.74024,-0.15537 -1.31126,-1.02836 -1.46662,-1.77772 -0.74024,0 -1.65015,0.87693 -2.08882,-0.3111 -0.15537,-0.59401 0.32063,-0.89839 0.6222,-1.19996 1.04182,-0.74024 2.20253,-1.2067 3.24434,-0.3111 l 0,-2.66658 c -0.89558,-0.14631 -1.92635,0.28293 -2.66658,-0.3111 0.1371,-6.09553 -0.94773,-11.53717 -2.04437,-17.0661 l -35.42106,0 z m -55.99815,295.90135 0,129.7735 c -4.50541,-7.39323 -9.60572,-13.01851 -15.55504,-16.71056 -5.94018,-3.7012 -12.54588,-5.46649 -19.86602,-5.46649 -12.73026,0 -23.61823,5.38314 -32.6656,16.22169 -9.02909,10.8294 -13.68844,23.82195 -13.68844,39.06538 0,15.57241 4.51939,28.91049 13.46622,39.77647 5.27308,6.4154 11.24175,10.83426 17.82165,13.46622 l 29.24348,0 c 1.73635,-0.69453 3.36794,-1.57368 5.02206,-2.53325 6.0133,-3.47272 11.41469,-8.56516 16.22169,-15.5106 l 0,18.04385 11.64406,0 0,-216.12621 -11.64406,0 z M 281.85682,651.28098 c -9.44033,0 -17.95916,2.39816 -25.59916,7.3331 -7.63998,4.92577 -13.68467,11.73203 -18.04385,20.53265 -4.36831,8.79146 -6.622,18.3323 -6.622,28.57684 0,15.24343 4.78393,28.20566 14.13287,38.84316 5.48325,6.23261 11.63586,10.65774 18.75493,13.24401 l 33.33224,0 c 2.67765,-0.94128 5.32833,-2.01474 7.77752,-3.42211 7.2196,-4.15813 12.88718,-10.04168 17.15499,-17.59942 l -9.15526,-7.06643 c -8.34367,12.3373 -19.07963,18.48828 -32.22116,18.48828 -7.13737,0 -13.63675,-1.94972 -19.42158,-5.73315 -5.79398,-3.78344 -10.38936,-9.11011 -13.68843,-15.95503 -3.2991,-6.84493 -4.79985,-14.19605 -4.79985,-21.95483 0,-11.92606 3.55388,-22.06447 10.7552,-30.399 7.20133,-8.3528 16.23387,-12.53292 27.15466,-12.53292 13.62587,0 24.35271,6.15098 32.22116,18.48828 l 9.15526,-6.622 c -2.65024,-5.20907 -5.97449,-9.65873 -9.8219,-13.02179 -3.84741,-3.3722 -8.45357,-6.1292 -13.9551,-8.22196 -5.50152,-2.10191 -11.1521,-2.97768 -17.11054,-2.97768 z m 97.55235,13.24401 c 9.91554,0 18.33847,4.13028 25.11028,12.35515 6.78095,8.23401 10.26633,18.37529 10.26633,30.62121 0,8.04211 -1.52653,15.26364 -4.53318,21.68818 -3.01578,6.40626 -7.39233,11.52322 -13.02179,15.28838 -5.6112,3.75602 -11.54332,5.73315 -17.82164,5.73315 -6.21435,0 -11.9305,-1.94058 -17.3772,-5.73315 -5.4284,-3.78344 -9.83237,-9.14666 -13.02181,-15.95503 -3.19856,-6.80836 -4.79984,-14.06232 -4.79984,-21.5104 0,-7.51203 1.62869,-14.49936 4.79984,-21.24374 3.17115,-6.73527 7.3986,-12.00422 12.79959,-15.73282 5.41016,-3.7286 11.20231,-5.51093 17.59942,-5.51093 z"
       id="path1634"
       style="fill:#ffffff;fill-opacity:1;fill-rule:nonzero;stroke:none" />
  </g>
</svg>
